<?xml version="1.0" encoding="UTF-8"?>
<svg id="_图层_1" data-name="图层 1" xmlns="http://www.w3.org/2000/svg" version="1.1" viewBox="0 0 256 256">
  <path d="M129,5.7C61.3,5.8,6.5,60.7,6.4,128.4c0,67.6,55,122.6,122.6,122.6s122.6-55,122.6-122.6c0-67.7-54.9-122.6-122.6-122.6ZM129,233.5c-57.9,0-105.1-47.1-105.1-105.1S71.1,23.3,129,23.3s105.1,47.1,105.1,105.1-47.1,105.1-105.1,105.1h0Z" style="fill: #000; stroke-width: 0px;"/>
  <path d="M179.5,119.6h-41.7v-41.7c0-4.8-3.9-8.8-8.8-8.8s-8.8,3.9-8.8,8.8v41.7h-41.7c-4.8,0-8.8,3.9-8.8,8.8s3.9,8.8,8.8,8.8h41.7v41.7c0,4.8,3.9,8.8,8.8,8.8,4.8,0,8.8-3.9,8.8-8.8v-41.7h41.7c4.8,0,8.8-3.9,8.8-8.8s-3.9-8.8-8.8-8.8Z" style="fill: #f20; stroke-width: 0px;"/>
</svg>