<?xml version="1.0" encoding="UTF-8"?>
<svg id="_图层_1" data-name="图层 1" xmlns="http://www.w3.org/2000/svg" version="1.1" viewBox="0 0 256 256">
  <path d="M219.4,0H66.3c-1.3,0-2.3,1-2.3,2.3v16c0,1.3,1,2.3,2.3,2.3h141.7v196.6c0,1.3,1,2.3,2.3,2.3h16c1.3,0,2.3-1,2.3-2.3V9.1c0-5.1-4.1-9.1-9.1-9.1Z" style="fill: #f22; stroke-width: 0px;"/>
  <path d="M182.9,36.6H36.6c-5.1,0-9.1,4.1-9.1,9.1v151.6c0,2.4,1,4.7,2.7,6.5l49.5,49.5c.6.6,1.3,1.1,2.1,1.6v.5h1.2c1,.4,2.1.6,3.1.6h96.8c5.1,0,9.1-4.1,9.1-9.1V45.7c0-5.1-4.1-9.1-9.1-9.1ZM81.7,226.3l-24.6-24.6h24.6v24.6ZM171.4,235.4h-71.4v-40.6c0-6.3-5.1-11.4-11.4-11.4h-40.6V57.1h123.4v178.3Z" style="fill: #000; stroke-width: 0px;"/>
</svg>