<?xml version="1.0" encoding="UTF-8"?>
<svg id="_图层_1" data-name="图层 1" xmlns="http://www.w3.org/2000/svg" version="1.1" viewBox="0 0 256 256">
  <g>
    <path d="M221.6,168h0v-14.4c1.6-19.2-12.8-35.2-32-36.8-7.2-.8-14.4,1.6-20,4.8-11.2,6.4-17.6,18.4-16,31.2v15.2c-9.6,1.6-16.8,9.6-17.6,19.2v44.8c0,11.2,8.8,20,20,20h63.2c10.4,0,19.2-8.8,20-19.2v-44.8c-.8-9.6-8-18.4-17.6-20ZM176.8,136c8.8-5.6,20.8-2.4,26.4,6.4,2.4,3.2,3.2,7.2,2.4,11.2v14.4h-37.6v-14.4c-.8-7.2,3.2-13.6,8.8-17.6ZM223.2,232.8c0,2.4-2.4,4.8-4.8,4.8h-62.4c-2.4,0-4.8-2.4-4.8-4.8v-44.8c0-2.4,2.4-4.8,4.8-4.8h63.2c1.6,0,2.4.8,3.2,1.6.8.8,1.6,2.4,1.6,3.2l-.8,44.8Z" style="fill: #f22; stroke-width: 0px;"/>
    <path d="M192.8,192.8c-4.8-3.2-11.2-1.6-14.4,4-.8,1.6-1.6,3.2-1.6,5.6s1.6,5.6,3.2,8v10.4c0,4,3.2,8,8,8s7.2-4,7.2-8v-10.4c4-4,4-11.2,0-15.2l-2.4-2.4Z" style="fill: #f22; stroke-width: 0px;"/>
  </g>
  <path d="M118.8,2C69.2,2,15.6,18.8,15.6,50.8v144.8c0,32,52.8,48.8,102.4,48.8s9.6-4,9.6-8.8-4-9.6-8.8-9.6h-.8c-52,0-84-17.6-84-30.4v-43.2c25.6,14.4,54.4,20.8,83.2,20,4.8.8,9.6-2.4,10.4-7.2s-2.4-9.6-7.2-10.4h-2.4c-51.2,0-84-18.4-84-31.2v-43.2c25.6,14.4,55.2,21.6,84.8,20,29.6.8,58.4-5.6,84-20v24c0,4.8,4,9.6,8.8,9.6s9.6-4,9.6-8.8v-54.4c0-32-52.8-48.8-102.4-48.8ZM118,81.2c-52,0-84.8-17.6-84.8-30.4s32.8-30.4,84.8-30.4,84.8,17.6,84.8,30.4-32,30.4-84.8,30.4Z" style="fill: #000; stroke-width: 0px;"/>
</svg>