<?xml version="1.0" encoding="UTF-8"?>
<svg id="_图层_1" data-name="图层 1" xmlns="http://www.w3.org/2000/svg" version="1.1" viewBox="0 0 256 256">
  <path d="M90.2,191v-88.2c0-7,5.6-12.6,12.6-12.6s12.6,5.6,12.6,12.6v88.2c0,7-5.6,12.6-12.6,12.6s-12.6-5.6-12.6-12.6h0ZM140.6,191v-88.2c0-7,5.7-12.6,12.6-12.6,7,0,12.6,5.6,12.6,12.6v88.2c0,7-5.7,12.6-12.6,12.6-7,0-12.6-5.6-12.6-12.6Z" fill="red"/>
  <path d="M228.8,65H27.2c-7,0-12.6-5.6-12.6-12.6s5.6-12.6,12.6-12.6h201.6c7,0,12.6,5.6,12.6,12.6s-5.6,12.6-12.6,12.6h0ZM153.2,27.2h-50.4c-7,0-12.6-5.6-12.6-12.6,0-7,5.6-12.6,12.6-12.6h50.4c7,0,12.6,5.6,12.6,12.6,0,7-5.6,12.6-12.6,12.6ZM52.4,77.6c7,0,12.6,5.6,12.6,12.6v126c0,7,5.6,12.6,12.6,12.6h100.8c7,0,12.6-5.6,12.6-12.6h0v-126c0-7,5.7-12.6,12.6-12.6,7,0,12.6,5.6,12.6,12.6v126c0,20.9-16.9,37.8-37.8,37.8h-100.8c-20.9,0-37.8-16.9-37.8-37.8v-126c0-7,5.6-12.6,12.6-12.6Z" fill="#000"/>
</svg>