<?xml version="1.0" encoding="UTF-8"?>
<svg id="_图层_1" data-name="图层 1" xmlns="http://www.w3.org/2000/svg" version="1.1" viewBox="0 0 256 256">
  <path d="M231.7,254.1H39.7c-13.2-.3-23.7-11-23.7-24.2V26.1c0-13.3,10.8-24.2,24.2-24.2,0,0,.1,0,.2,0h176c13.2.3,23.7,11,23.7,24.2v155.4c0,6.5-2.4,12.7-7,17.3-6.4,5.9-15,8.8-23.7,8-22.9-.8-164.3,0-165.8,0-3.1-.3-6.2.6-8.6,2.4-1.7,2-2.5,4.6-2.2,7.2v13.6c0,4.4,3.4,8.1,7.8,8.2,0,0,.1,0,.2,0h192c4.4,0,8,3.6,8,8,0,4.4-3.5,8-7.9,8.1-.3,0-.7,0-1,0ZM40.3,17.9c-4.4,0-8,3.6-8,8,0,0,0,.1,0,.2v165.9c3.7-1.2,7.6-1.8,11.5-1.6,5.1,0,142.4-.8,165.6,0,4.2.5,8.5-.6,11.8-3.2,1.5-1.6,2.3-3.6,2.4-5.8V26.1c0-4.4-3.4-8.1-7.8-8.2,0,0-.1,0-.2,0H40.3Z" style="fill: #000; stroke-width: 0px;"/>
  <path d="M169.6,79.8h-85.1c-1.6,0-2.8,1.8-2.8,4.1v28.5c0,2.2,1.2,4.1,2.8,4.1h85.1c1.6,0,2.8-1.8,2.8-4.1v-28.5c0-2.2-1.2-4.1-2.8-4.1Z" style="fill: #f22; stroke-width: 0px;"/>
  <path d="M127,27.9c-40.4,0-73,32.7-73,73s32.7,73,73,73,73-32.7,73-73S167.3,27.9,127,27.9ZM127,154.1c-29.4,0-53.2-23.8-53.2-53.2s23.8-53.2,53.2-53.2,53.2,23.8,53.2,53.2-23.8,53.2-53.2,53.2Z" style="fill: #f22; stroke-width: 0px;"/>
</svg>