<?xml version="1.0" encoding="UTF-8"?>
<svg id="_图层_1" data-name="图层 1" xmlns="http://www.w3.org/2000/svg" version="1.1" viewBox="0 0 256 256">
  <path d="M248.7,130.5h-18c-1.4,0-2.6,1.2-2.6,2.6v99H24.9V28.9h99.2c1.4,0,2.6-1.1,2.6-2.6h0V8.3c0-1.4-1.2-2.6-2.6-2.6H23.6C11.5,5.7,1.8,15.5,1.8,27.6v205.7c0,12.1,9.8,21.9,21.9,21.9h205.7c12.1,0,21.9-9.8,21.9-21.9v-100.3c0-1.4-1.2-2.6-2.6-2.6,0,0,0,0,0,0h0Z" style="fill: #000; stroke-width: 0px;"/>
  <path d="M249.7,32.5l-25-25c-8-8-21.1-8-29.1,0l-114.7,114.7c-1.9,2-3.2,4.5-3.6,7.2h0s-6.1,42.1-6.1,42.1c-1,7,3.8,13.6,10.9,14.6,1.2.2,2.5.2,3.7,0l42.1-6.2c2.7-.4,5.3-1.7,7.2-3.6l114.7-114.7c8-8,8-21.1,0-29.1ZM122.4,159.9l-29.3,4.3,4.3-29.3h0S210.2,22,210.2,22l25,25-112.9,112.9Z" style="fill: #f22; stroke-width: 0px;"/>
</svg>