<?xml version="1.0" encoding="UTF-8"?>
<svg id="_图层_1" data-name="图层 1" xmlns="http://www.w3.org/2000/svg" version="1.1" viewBox="0 0 256 256">
  <path d="M128.2,1.9s0,0-.1,0c-39.8,0-72,32.3-72,72,0,22.8,10.8,44.3,29.2,57.9C35.3,150,2.1,197.4,2.1,250.5v3.6h21.7v-3.6c0-57.6,46.7-104.4,104.4-104.5h0c39.8,0,72-32.3,72-72h0c0-39.8-32.2-72-72-72ZM128.1,124.4c-27.8,0-50.4-22.6-50.4-50.4h.1c0-27.8,22.5-50.4,50.3-50.4,27.8,0,50.4,22.6,50.4,50.4s-22.6,50.4-50.4,50.4Z" style="fill: #000; stroke-width: 0px;"/>
  <path d="M214.5,251.4c-3.1-3.2-3-8.3.1-11.4l10.2-10h-58.6c-4.5,0-8.1-3.6-8.1-8.1,0-4.5,3.6-8.1,8.1-8.1h78.4c3.3,0,6.3,2,7.5,5,.4,1,.6,2,.6,3.1,0,2.2-.9,4.3-2.4,5.8l-24.5,23.9c-1.5,1.5-3.5,2.3-5.7,2.3-2.2,0-4.2-.9-5.8-2.5h0Z" style="fill: #f22; stroke-width: 0px;"/>
  <path d="M166.4,199c-3.3,0-6.3-2-7.5-5-1.2-3-.5-6.5,1.8-8.8l24.5-23.9c3.2-3.1,8.3-3.1,11.4.1,0,0,0,0,0,0,3.1,3.2,3.1,8.3-.1,11.4,0,0,0,0,0,0l-10.2,10h58.6c4.5,0,8.1,3.6,8.1,8.1,0,0,0,0,0,0,0,4.5-3.6,8.1-8.1,8.1,0,0,0,0,0,0h-78.4Z" style="fill: #f22; stroke-width: 0px;"/>
</svg>