<?xml version="1.0" encoding="UTF-8"?>
<svg id="_图层_1" data-name="图层 1" xmlns="http://www.w3.org/2000/svg" version="1.1" viewBox="0 0 256 256">
  <path d="M122.5,222.5c2.9-2.3,5.7-4.8,8.4-7.5l-1.8-17.8c-4.6,5.4-9.7,10.4-15.3,14.8v-22.7c4.9.3,9.9,1.1,14.7,2.2l-1.5-14.5c-4.3-.8-8.7-1.3-13.2-1.6v-39.9h30l7-13.9h-37v-39.9c9-.5,17.9-2.2,26.5-5,6.8,12.3,11.2,26.1,12.7,40.5l10-19.7c-2.3-9-5.7-17.6-10-25.8,6.4-3,12.5-6.6,18.3-10.8l.2.2c2.2,2.3,4.3,4.7,6.2,7.2l.9-1.9,6.2-11.4c-14.9-13.7-32.1-37.8-77.7-37.7-58.6,0-106.1,49.7-106.1,111.1s47.5,111.1,106.1,111.1,17.6-1.2,26-3.4l-1.7-16c-3,.9-6,1.6-9,2.1ZM142.6,41c6.5,2.9,12.6,6.5,18.2,10.8-4.8,3.2-9.8,6-15,8.3-6.3-9.1-13.7-17.3-22.2-24.2-.4-.3-.8-.7-1.2-1,6.9,1.2,13.6,3.3,20.1,6.1ZM113.8,45.4c7.1,5.6,13.4,12.1,18.7,19.4-6.1,1.7-12.3,2.7-18.7,3.2v-22.5ZM71.7,40.9c6.5-2.9,13.2-4.9,20.1-6.1-8.9,7.1-16.8,15.6-23.4,25.2-5.2-2.3-10.2-5.1-15-8.3,5.6-4.3,11.8-8,18.2-10.8ZM23.3,91.6c4.6-11.3,11.1-21.5,19.5-30.2l.2-.2c5.8,4.2,11.9,7.8,18.3,10.8-8.1,15.3-12.7,32.3-13.7,49.8h-31.2c.7-10.4,3-20.5,6.9-30.1ZM42.8,196c-8.4-8.8-14.9-18.9-19.5-30.2-3.9-9.6-6.2-19.7-6.9-30.1h31.2c1,17.6,5.6,34.5,13.7,49.8-6.4,3-12.5,6.6-18.3,10.8l-.2-.2ZM71.7,216.4c-6.5-2.9-12.6-6.5-18.2-10.8,4.8-3.2,9.8-6,15-8.3,6.6,9.7,14.5,18.1,23.4,25.2-6.9-1.2-13.6-3.3-20.1-6.1ZM100.5,212c-7.2-5.6-13.6-12.1-19-19.4,6.2-1.7,12.5-2.8,19-3.2v22.7ZM100.5,135.6v39.9c-9.1.5-18,2.2-26.7,5-7.4-13.5-11.9-28.8-12.9-44.9h39.6ZM100.5,121.7h-39.6c1-16.1,5.5-31.4,12.9-44.9,8.6,2.8,17.6,4.5,26.7,5v39.9ZM100.5,68c-6.5-.4-12.8-1.5-18.9-3.2,5.4-7.3,11.8-13.8,18.9-19.4v22.7Z" style="fill: #000; stroke-width: 0px;"/>
  <path d="M139,232.9l14.7,8,26.5-17.1-44.2-23.1,2.9,32.1ZM247,81.3l-42.2-22.1c-7.8-4-17.7-1-22.6,7l-7.8,15.1,71.6,37.1,7.8-15.1c4.9-8,1-18.1-6.9-22.1ZM190.1,99.4l-18.6-9c-11.8,25.1-24.5,49.2-36.3,74.3,2,10,5.9,15.1,14.7,12l25.5-50.2,4.9,2-25.5,49.2c6.9,14.1,18.6,17.1,32.4,15.1,2,11,6.9,17.1,18.6,10l36.3-74.3-18.6-10-33.4-19.1h0Z" style="fill: #f22; stroke-width: 0px;"/>
</svg>