<?xml version="1.0" encoding="UTF-8"?>
<svg id="_图层_1" data-name=" 图层 1" xmlns="http://www.w3.org/2000/svg" version="1.1" viewBox="0 0 256 256">
  <path d="M104.7,234.5c-6.5-1.4-12.8-3.4-19-6-7.8-3.3-15.1-7.4-21.8-12.4,5.7-3.7,11.7-6.8,17.9-9.5,5.8,8.2,12.5,15.6,19.9,22.2-6.1-12.5-9.5-26.6-9.5-41.4s0-.8,0-1.2c-1.3.4-2.7.8-4,1.2-8.8-15.4-14.2-32.9-15.4-51.4h34.6c3.7-5.7,8-11.1,12.9-15.9h-47.4c1.2-18.4,6.6-35.9,15.5-51.4,10.4,3.2,21.1,5.1,31.9,5.8v45.6c4.8-4.8,10.1-9.1,15.9-12.7v-32.9c10.8-.6,21.4-2.5,31.7-5.7,4.4,7.6,7.9,15.7,10.6,24.1,2.9-.3,5.8-.4,8.7-.4s5.3,0,7.9.3c-2.8-10.3-6.8-20.3-12-29.8,7.7-3.4,15-7.5,21.9-12.3l.3.3c10,10,17.9,21.6,23.4,34.6,2.7,6.4,4.8,13,6.2,19.7,7.5,4.4,14.3,9.7,20.4,15.9C251.5,54.3,196,1,128.1,1S1,57.9,1,128.1s52.8,122.9,119.4,126.9c-6.1-6-11.5-12.9-15.8-20.4h0ZM170.5,27.7c7.8,3.3,15.1,7.4,21.8,12.4-5.7,3.7-11.7,6.9-17.9,9.5-7.5-10.5-16.4-19.8-26.6-27.7-.5-.4-1-.8-1.5-1.1,8.3,1.4,16.3,3.7,24.1,7h0ZM136,32.8c8.5,6.4,16,13.9,22.4,22.2-7.3,1.9-14.8,3.1-22.4,3.6v-25.8ZM120.1,58.6c-7.7-.5-15.3-1.7-22.7-3.7,6.5-8.3,14.1-15.8,22.7-22.2,0,0,0,25.9,0,25.9ZM85.7,27.7c7.8-3.3,15.8-5.6,24.1-7-10.7,8.1-20.1,17.8-28,28.9-6.2-2.6-12.2-5.8-17.9-9.5,6.8-5,14.1-9.1,21.8-12.4ZM27.7,85.7c5.5-13,13.3-24.6,23.4-34.6l.3-.3c6.9,4.8,14.2,8.9,21.9,12.3-9.6,17.5-15.2,36.9-16.4,57H19.4c.9-11.9,3.6-23.5,8.3-34.5h0ZM51.1,205.2c-10-10-17.9-21.6-23.4-34.6-4.7-11-7.4-22.6-8.3-34.5h37.4c1.2,20.1,6.8,39.5,16.4,57-7.7,3.4-15,7.5-21.9,12.3l-.3-.3h.1Z" style="fill: #000; stroke-width: 0px;"/>
  <path d="M223.4,156h-91c-1.7,0-3,1.9-3,4.4v30.5c0,2.4,1.3,4.4,3,4.4h91c1.7,0,3-1.9,3-4.4v-30.5c0-2.4-1.3-4.4-3-4.4Z" style="fill: #f22; stroke-width: 0px;"/>
  <path d="M177.9,100.5c-43.2,0-78.1,35-78.1,78.1s35,78.1,78.1,78.1,78.1-35,78.1-78.1-35-78.1-78.1-78.1ZM177.9,235.5c-31.4,0-56.9-25.5-56.9-56.9s25.5-56.9,56.9-56.9,56.9,25.5,56.9,56.9-25.5,56.9-56.9,56.9Z" style="fill: #f22; stroke-width: 0px;"/>
</svg>