<?xml version="1.0" encoding="UTF-8"?>
<svg id="_图层_1" data-name="图层 1" xmlns="http://www.w3.org/2000/svg" version="1.1" viewBox="0 0 256 256">
  <path d="M240,112h-80c-8.8,0-16-7.2-16-16V16c0-8.8,7.2-16,16-16h80c8.8,0,16,7.2,16,16v80c0,8.8-7.2,16-16,16ZM240,16h-80v80h80V16ZM96,256H16c-8.8,0-16-7.2-16-16v-80c0-8.8,7.2-16,16-16h80c8.8,0,16,7.2,16,16v80c0,8.8-7.2,16-16,16ZM96,160H16v80h80v-80ZM96,112H16c-8.8,0-16-7.2-16-16V16C0,7.2,7.2,0,16,0h80c8.8,0,16,7.2,16,16v80c0,8.8-7.2,16-16,16ZM96,16H16v80h80V16Z" style="fill: #000; stroke-width: 0px;"/>
  <path d="M251.6,236.2l-33-33,33-33c4.6-4.6,4.6-12,0-16.5s-12-4.6-16.5,0l-33,33-33-33c-4.6-4.6-12-4.6-16.5,0s-4.6,12,0,16.5l33,33-33,33c-4.6,4.6-4.6,12,0,16.5s12,4.6,16.5,0l33-33,33,33c4.6,4.6,12,4.6,16.5,0s4.6-12,0-16.5Z" style="fill: #f22; stroke-width: 0px;"/>
</svg>