<?xml version="1.0" encoding="UTF-8"?>
<svg id="_图层_1" data-name="图层 1" xmlns="http://www.w3.org/2000/svg" version="1.1" viewBox="0 0 256 256">
  <path d="M240,112h-80c-8.8,0-16-7.2-16-16V16c0-8.8,7.2-16,16-16h80c8.8,0,16,7.2,16,16v80c0,8.8-7.2,16-16,16ZM240,16h-80v80h80V16ZM96,256H16c-8.8,0-16-7.2-16-16v-80c0-8.8,7.2-16,16-16h80c8.8,0,16,7.2,16,16v80c0,8.8-7.2,16-16,16ZM96,160H16v80h80v-80ZM96,112H16c-8.8,0-16-7.2-16-16V16C0,7.2,7.2,0,16,0h80c8.8,0,16,7.2,16,16v80c0,8.8-7.2,16-16,16ZM96,16H16v80h80V16Z" style="fill: #000; stroke-width: 0px;"/>
  <path d="M244.5,182.3h-41.5v-41.5c0-5.7-4.7-10.4-10.4-10.4s-10.4,4.7-10.4,10.4v41.5h-41.5c-5.7,0-10.4,4.7-10.4,10.4s4.7,10.4,10.4,10.4h41.5v41.5c0,5.7,4.7,10.4,10.4,10.4s10.4-4.7,10.4-10.4v-41.5h41.5c5.7,0,10.4-4.7,10.4-10.4s-4.7-10.4-10.4-10.4Z" style="fill: #f22; stroke-width: 0px;"/>
</svg>