<?xml version="1.0" encoding="UTF-8"?>
<svg id="_图层_1" data-name="图层 1" xmlns="http://www.w3.org/2000/svg" version="1.1" viewBox="0 0 256 256">
  <path d="M234.8,170.5h0c0,0,.1,0,.2,0h0s0,0,.1,0h0s0,0,.1,0h0c0,0,.2,0,.3,0h0c.2,0,.4.1.5.2h0c0,0,.2,0,.3.1h0c.5.2,1,.5,1.4.7h0s0,0,0,0h0c1.2.8,2.2,1.9,3,3.1.7,1.2,1.2,2.5,1.4,3.9,0,.5,0,1,0,1.4v51.9c0,5.4-4.4,9.8-9.8,9.8s-9.7-4.3-9.8-9.6v-.2s0-20.1,0-20.1c-23.4,26.8-57.3,42.8-94.4,42.8s-92.5-27.7-113.8-70.5c-2.4-4.8-.4-10.7,4.4-13.1,4.8-2.4,10.7-.4,13.1,4.4,18,36.3,55.1,59.7,96.3,59.7s67.3-17.3,87-45.6h-27c-5.4,0-9.8-4.4-9.8-9.8s4.3-9.7,9.6-9.8h.2s44,0,44,0c.8,0,1.5,0,2.3.2Z" style="fill: #000; stroke-width: 0px;"/>
  <path d="M112.1,84.7c8.8-8.8,23-8.9,31.9-.3l.3.3,27.6,27.6c8.9,8.9,8.9,23.3,0,32.2h0s0,.1,0,.1h0s0,0,0,0h0c0,0,0,.1,0,.1l-27.3,27.3c-8.8,8.8-23,8.9-31.9.3l-.3-.3-27.6-27.6c-8.9-8.9-8.9-23.3,0-32.2h0c0,0,0-.1,0-.1h0s0,0,0,0h0c0,0,27.3-27.4,27.3-27.4Z" style="fill: #f22; stroke-width: 0px;"/>
  <path d="M127.7,1.1c48.7,0,92.5,27.7,113.8,70.5,2.4,4.8.4,10.7-4.4,13.1-4.8,2.4-10.7.4-13.1-4.4-18-36.3-55.1-59.7-96.3-59.7s-67.3,17.3-87,45.6h27c5.4,0,9.8,4.4,9.8,9.8s-4.3,9.7-9.6,9.8h-.2s-44,0-44,0c-.8,0-1.6,0-2.3-.2h0s0,0,0,0c0,0,0,0-.1,0h0s0,0,0,0h0s0,0,0,0h0c-.1,0-.3,0-.4-.1h0c-.3-.1-.6-.2-.8-.3h0c-.6-.3-1.1-.6-1.6-.9h0c-1.1-.8-2.1-1.8-2.8-3-.7-1.2-1.2-2.5-1.4-3.9,0-.5,0-1,0-1.4V23.9c0-5.4,4.4-9.8,9.8-9.8s9.7,4.3,9.8,9.6v.2s0,20.1,0,20.1C56.7,17.2,90.6,1.1,127.7,1.1h0Z" style="fill: #000; stroke-width: 0px;"/>
</svg>