<?xml version="1.0" encoding="UTF-8"?>
<svg id="_图层_1" data-name="图层 1" xmlns="http://www.w3.org/2000/svg" version="1.1" viewBox="0 0 128 128">
  <g>
    <path d="M47.2,3c0-.2-.2-.4-.3-.6-.1-.2-.3-.3-.4-.5-.2-.2-.3-.3-.5-.4-.2-.1-.4-.2-.6-.3-.2,0-.4-.1-.6-.2-.2,0-.4,0-.6,0H4.3c-.2,0-.4,0-.6,0-.2,0-.4.1-.6.2-.2,0-.4.2-.6.3-.2.1-.3.3-.5.4-.2.2-.3.3-.4.5-.1.2-.2.4-.3.6,0,.2-.1.4-.2.6,0,.2,0,.4,0,.6v46.4c0,.2,0,.4,0,.6,0,.2.1.4.2.6,0,.2.2.4.3.6.1.2.3.3.4.5.2.2.3.3.5.4.2.1.4.2.6.3.2,0,.4.1.6.2.2,0,.4,0,.6,0s.4,0,.6,0c.2,0,.4-.1.6-.2.2,0,.4-.2.6-.3.2-.1.3-.3.5-.4.2-.2.3-.3.4-.5.1-.2.2-.4.3-.6,0-.2.1-.4.2-.6,0-.2,0-.4,0-.6V7.6h36.5c.2,0,.4,0,.6,0,.2,0,.4-.1.6-.2.2,0,.4-.2.6-.3.2-.1.3-.3.5-.4.2-.2.3-.3.4-.5.1-.2.2-.4.3-.6,0-.2.1-.4.2-.6s0-.4,0-.6h0c0-.2,0-.4,0-.6,0-.2-.1-.4-.2-.6Z" style="fill: #000; stroke-width: 0px;"/>
    <path d="M47.2,122.4c0-.2-.2-.4-.3-.6-.1-.2-.3-.3-.4-.5-.2-.2-.3-.3-.5-.4-.2-.1-.4-.2-.6-.3-.2,0-.4-.1-.6-.2-.2,0-.4,0-.6,0H7.6v-36.5c0-.2,0-.4,0-.6,0-.2-.1-.4-.2-.6,0-.2-.2-.4-.3-.6-.1-.2-.3-.3-.4-.5-.2-.2-.3-.3-.5-.4-.2-.1-.4-.2-.6-.3-.2,0-.4-.1-.6-.2-.2,0-.4,0-.6,0s-.4,0-.6,0c-.2,0-.4.1-.6.2-.2,0-.4.2-.6.3-.2.1-.3.3-.5.4-.2.2-.3.3-.4.5-.1.2-.2.4-.3.6,0,.2-.1.4-.2.6,0,.2,0,.4,0,.6v39.8c0,.2,0,.4,0,.6,0,.2.1.4.2.6,0,.2.2.4.3.6.1.2.3.3.4.5.2.2.3.3.5.4.2.1.4.2.6.3.2,0,.4.1.6.2.2,0,.4,0,.6,0h39.8c.2,0,.4,0,.6,0,.2,0,.4-.1.6-.2.2,0,.4-.2.6-.3.2-.1.3-.3.5-.4.2-.2.3-.3.4-.5.1-.2.2-.4.3-.6,0-.2.1-.4.2-.6s0-.4,0-.6,0-.4,0-.6c0-.2-.1-.4-.2-.6Z" style="fill: #000; stroke-width: 0px;"/>
    <path d="M126.9,3.7c0-.2-.1-.4-.2-.6,0-.2-.2-.4-.3-.6-.1-.2-.3-.3-.4-.5-.2-.2-.3-.3-.5-.4-.2-.1-.4-.2-.6-.3-.2,0-.4-.1-.6-.2-.2,0-.4,0-.6,0h-39.8c-.2,0-.4,0-.6,0-.2,0-.4.1-.6.2-.2,0-.4.2-.6.3-.2.1-.3.3-.5.4-.2.2-.3.3-.4.5-.1.2-.2.4-.3.6,0,.2-.1.4-.2.6,0,.2,0,.4,0,.6s0,.4,0,.6c0,.2.1.4.2.6,0,.2.2.4.3.6s.3.3.4.5c.2.2.3.3.5.4.2.1.4.2.6.3.2,0,.4.1.6.2.2,0,.4,0,.6,0h36.5v43.1c0,.2,0,.4,0,.6,0,.2.1.4.2.6,0,.2.2.4.3.6.1.2.3.3.4.5.2.2.3.3.5.4.2.1.4.2.6.3.2,0,.4.1.6.2.2,0,.4,0,.6,0s.4,0,.6,0c.2,0,.4-.1.6-.2.2,0,.4-.2.6-.3.2-.1.3-.3.5-.4.2-.2.3-.3.4-.5.1-.2.2-.4.3-.6,0-.2.1-.4.2-.6,0-.2,0-.4,0-.6V4.3c0-.2,0-.4,0-.6Z" style="fill: #000; stroke-width: 0px;"/>
    <path d="M126.7,82.6c0-.2-.2-.4-.3-.6-.1-.2-.3-.3-.4-.5-.2-.2-.3-.3-.5-.4-.2-.1-.4-.2-.6-.3-.2,0-.4-.1-.6-.2s-.4,0-.6,0-.4,0-.6,0c-.2,0-.4.1-.6.2-.2,0-.4.2-.6.3-.2.1-.3.3-.5.4-.2.2-.3.3-.4.5-.1.2-.2.4-.3.6,0,.2-.1.4-.2.6,0,.2,0,.4,0,.6v36.5h-36.5c-.2,0-.4,0-.6,0-.2,0-.4.1-.6.2-.2,0-.4.2-.6.3-.2.1-.3.3-.5.4-.2.2-.3.3-.4.5-.1.2-.2.4-.3.6,0,.2-.1.4-.2.6s0,.4,0,.6,0,.4,0,.6c0,.2.1.4.2.6,0,.2.2.4.3.6.1.2.3.3.4.5.2.2.3.3.5.4.2.1.4.2.6.3.2,0,.4.1.6.2.2,0,.4,0,.6,0h39.8c.2,0,.4,0,.6,0,.2,0,.4-.1.6-.2.2,0,.4-.2.6-.3.2-.1.3-.3.5-.4.2-.2.3-.3.4-.5.1-.2.2-.4.3-.6,0-.2.1-.4.2-.6,0-.2,0-.4,0-.6v-39.8c0-.2,0-.4,0-.6,0-.2-.1-.4-.2-.6Z" style="fill: #000; stroke-width: 0px;"/>
  </g>
  <path d="M102.4,63.4c0-.2-.1-.4-.2-.6,0-.2-.2-.4-.3-.6-.1-.2-.3-.3-.4-.5s-.3-.3-.5-.4c-.2-.1-.4-.2-.6-.3-.2,0-.4-.1-.6-.2s-.4,0-.6,0,0,0,0,0H26.1s0,0,0,0c-.2,0-.4,0-.6,0s-.4.1-.6.2-.4.2-.6.3c-.2.1-.3.3-.5.4-.2.2-.3.3-.4.5-.1.2-.2.4-.3.6,0,.2-.1.4-.2.6s0,.4,0,.6,0,.4,0,.6c0,.2.1.4.2.6,0,.2.2.4.3.6.1.2.3.3.4.5.2.2.3.3.5.4.2.1.4.2.6.3.2,0,.4.1.6.2.2,0,.4,0,.6,0h73.1c.2,0,.4,0,.6,0,.2,0,.4-.1.6-.2s.4-.2.6-.3c.2-.1.3-.3.5-.4s.3-.3.4-.5c.1-.2.2-.4.3-.6,0-.2.1-.4.2-.6,0-.2,0-.4,0-.6h0c0-.2,0-.4,0-.6Z" style="fill: #f22; stroke-width: 0px;"/>
</svg>