<?xml version="1.0" encoding="UTF-8"?>
<svg id="search" xmlns="http://www.w3.org/2000/svg" version="1.1" viewBox="0 0 128 128">
  <path d="M126.7,119.8l-24.7-24.7c8.5-10.1,13.7-23.1,13.7-37.3,0-31.9-25.9-57.8-57.8-57.8S0,25.9,0,57.8s25.9,57.8,57.8,57.8c13.7,0,26.9-4.8,37.3-13.7l24.7,24.7c1.9,1.8,4.8,1.8,6.7,0,1.9-1.8,2-4.9.1-6.8h0ZM57.8,106c-26.6,0-48.2-21.6-48.2-48.2S31.2,9.6,57.8,9.6s48.2,21.6,48.2,48.2-21.6,48.2-48.2,48.2h0Z" style="fill: #000; stroke-width: 0px;"/>
  <path d="M62.6,28.9c0,2.7-2.2,4.8-4.8,4.8-13.3,0-24.1,10.8-24.1,24.1s-2.2,4.8-4.8,4.8-4.8-2.2-4.8-4.8c0-9.3,3.8-17.7,9.9-23.8s14.5-9.9,23.8-9.9,2.5.5,3.4,1.4c.9.9,1.4,2.1,1.4,3.4h0,0Z" style="fill: #f22; stroke-width: 0px;"/>
</svg>