<?xml version="1.0" encoding="UTF-8"?>
<svg id="_图层_1" data-name="图层 1" xmlns="http://www.w3.org/2000/svg" version="1.1" viewBox="0 0 256 256">
  <path d="M181.3,117.4c-3.5-14.1-11.7-25.8-23.5-34.1h0c-11.7-8.2-25.8-10.6-39.9-8.2-14.1,3.5-25.8,11.7-34.1,23.5-8.2,11.7-10.6,25.8-8.2,39.9,4.7,25.8,27,43.4,52.8,43.4s5.9,0,8.2-1.2h2.3c21.1-4.7,37.6-21.1,42.3-42.3,1.2-7,1.2-14.1,0-21.1ZM159.3,134.1c-2.5,12.3-11.1,20.9-23.4,24.6h-1.2c-17.2,3.7-33.2-7.4-36.9-24.6-1.2-8.6,0-16,4.9-23.4,4.9-7.4,12.3-11.1,19.7-13.5h6.2c14.8,0,28.3,9.9,30.8,24.6v12.3Z" style="fill: #f22; stroke-width: 0px;"/>
  <path d="M244.7,144.4h0l-14.1-8.2v-15.3l14.1-8.2c9.4-5.9,11.7-17.6,7-25.8l-25.8-44.6c-5.9-9.4-17.6-11.7-25.8-7l-15.3,8.2c-3.5-3.5-7-5.9-11.7-8.2v-16.4c0-9.4-8.2-18.8-18.8-18.8h-51.7c-10.6,0-20,8.2-20,18.8v16.4c-3.5,2.3-8.2,4.7-11.7,7l-15.3-8.2c-8.2-4.7-20-2.3-25.8,7L4,86.9c-4.7,8.2-2.3,20,7,25.8l14.1,8.2v15.3l-14.1,8.2c-9.4,5.9-11.7,17.6-7,25.8l25.8,44.6c5.9,9.4,17.6,11.7,25.8,7l14.1-8.2c3.5,2.3,8.2,5.9,12.9,7v16.4c0,10.6,8.2,18.8,18.8,18.8h52.8c10.6,0,18.8-8.2,18.8-18.8v-16.4c4.7-2.3,8.2-4.7,11.7-7l14.1,8.2c9.4,4.7,21.1,2.3,25.8-7l25.8-44.6c7-9.4,3.5-21.1-5.9-25.8ZM211.1,202.1l-12.2-7.3c-6.1-4.9-14.6-4.9-21.9,0-4.9,3.6-8.5,6.1-14.6,8.5-7.3,3.6-10.9,10.9-10.9,18.2v15.8h-46.2v-15.8c0-8.5-4.9-14.6-12.2-18.2-4.9-2.4-9.7-4.9-14.6-8.5-6.1-4.9-14.6-4.9-20.7-1.2l-12.2,8.5-21.9-38.9,13.4-7.3c7.3-3.6,10.9-12.2,9.7-19.4v-15.8c0-8.5-3.6-15.8-10.9-19.4l-13.4-8.5,23.1-38.9,12.2,7.3c6.1,4.9,14.6,4.9,21.9,0,4.9-3.6,8.5-6.1,13.4-8.5,7.3-3.6,12.2-9.7,12.2-18.2v-14.6h45v15.8c0,7.3,4.9,14.6,12.2,18.2,4.9,2.4,9.7,4.9,14.6,8.5,6.1,4.9,14.6,4.9,20.7,0l13.4-7.3,21.9,37.7-13.4,7.3c-7.3,3.6-10.9,12.2-9.7,18.2v15.8c-1.2,9.7,3.6,18.2,9.7,21.9h0s13.4,7.3,13.4,7.3l-21.9,38.9Z" style="fill: #000; stroke-width: 0px;"/>
</svg>