<?xml version="1.0" encoding="UTF-8"?>
<svg id="user-add" xmlns="http://www.w3.org/2000/svg" version="1.1" viewBox="0 0 122.8 128">
  <path d="M96.3,32.8c0,18.3-14.7,33-32.9,33s-32.9-14.7-32.9-33S45.2-.2,63.4-.2s32.9,14.7,32.9,33ZM89.4,32.8c0-7.2-2.5-13.3-7.6-18.5s-11.2-7.6-18.4-7.6-13.3,2.5-18.4,7.6c-5.1,5.1-7.6,11.2-7.6,18.5s2.5,13.3,7.6,18.5c5.1,5.1,11.2,7.6,18.4,7.6s13.3-2.5,18.4-7.6,7.6-11.2,7.6-18.5h0Z" style="fill: #000; stroke-width: 0px;"/>
  <path d="M40.9,76c0-.2-.2-.4-.3-.6s-.3-.4-.4-.5c0-.2-.3-.3-.5-.4s-.4-.2-.6-.3c-.2,0-.4-.2-.6-.2h-1.4c-.2,0-.4.1-.6.2-.2,0-.4.2-.6.3-.2.1-.4.3-.5.4-.2.2-.3.3-.4.5l-.3.6c0,.2-.2.4-.2.6v1.4c0,.2,0,.4.2.6,0,.2.2.4.3.6s.3.4.4.5c.2.2.3.3.5.4s.4.2.6.3c.2,0,.4.2.6.2h1.4c.2,0,.4-.1.6-.2.2,0,.4-.2.6-.3.2-.1.3-.3.5-.4s.3-.3.4-.5l.3-.6c0-.2.2-.4.2-.6v-1.4c0-.2,0-.4-.2-.6Z" style="fill: #000; stroke-width: 0px;"/>
  <path d="M121.1,108c-3.6-10.5-9-18.9-16.2-25.1-15.4-13.1-34.1-13.1-42-13.1-11.3,0-20.5,2.3-26.4,4.3.2.9.5,1.8.8,2.8.5,1.4,1,2.6,1.5,3.7,6.9-2.6,14.9-3.9,24.1-3.9,26.9,0,44.1,11.1,51.6,33.5.9,2.7.5,5.2-1.4,7.4-1.9,2.3-4.5,3.5-7.7,3.5H40.5c-.2,0-.4.1-.7.2-.2,0-.4.2-.6.3-.2.1-.4.3-.5.4-.2.2-.3.3-.4.5l-.3.6c0,.2-.2.4-.2.6v.7h0v.7c0,.2,0,.4.2.6,0,.2.2.4.3.6s.3.3.4.5c.2.2.3.3.5.4s.4.2.6.3c.2,0,.4.2.7.2h64.9c5.4,0,9.7-2,13.1-6,3.5-4.2,4.4-8.9,2.6-14.1v.4Z" style="fill: #000; stroke-width: 0px;"/>
  <path d="M23.5,122.5v-41.6h10.4v41.6h-10.4ZM49.4,106.8H7.9v-10.4h41.5v10.4ZM33.9,122.5c0,.4,0,.7,0,1s-.2.6-.3,1-.3.6-.5.9-.4.5-.6.8c-.3.2-.5.5-.8.6s-.6.4-.9.5-.6.2-1,.3c-.3,0-.7.1-1,.1s-.7,0-1-.1-.6-.2-1-.3-.6-.3-.9-.5-.5-.4-.8-.6c-.2-.3-.5-.5-.6-.8-.2-.3-.4-.6-.5-.9s-.2-.6-.3-1-.1-.7-.1-1,0-.7.1-1c0-.3.2-.6.3-1s.3-.6.5-.9.4-.5.6-.8c.3-.2.5-.5.8-.6s.6-.4.9-.5.6-.2,1-.3c.3,0,.7-.1,1-.1s.7,0,1,.1.6.2,1,.3.6.3.9.5.5.4.8.6c.2.3.5.5.6.8.2.3.4.6.5.9s.2.6.3,1c0,.3,0,.7,0,1ZM33.9,80.9c0,.4,0,.7,0,1s-.2.6-.3,1-.3.6-.5.9-.4.5-.6.8c-.3.2-.5.5-.8.6s-.6.4-.9.5-.6.2-1,.3c-.3,0-.7.1-1,.1s-.7,0-1-.1-.6-.2-1-.3-.6-.3-.9-.5-.5-.4-.8-.6c-.2-.3-.5-.5-.6-.8-.2-.3-.4-.6-.5-.9s-.2-.6-.3-1-.1-.7-.1-1,0-.7.1-1,.2-.6.3-1,.3-.6.5-.9.4-.5.6-.8c.3-.2.5-.5.8-.6s.6-.4.9-.5.6-.2,1-.3c.3,0,.7-.1,1-.1s.7,0,1,.1.6.2,1,.3.6.3.9.5.5.4.8.6c.2.3.5.5.6.8.2.3.4.6.5.9s.2.6.3,1c0,.3,0,.7,0,1ZM54.6,101.6c0,.4,0,.7,0,1s-.2.6-.3,1-.3.6-.5.9-.4.5-.6.8c-.3.2-.5.5-.8.6s-.6.4-.9.5c-.3.1-.6.2-1,.3-.3,0-.7.1-1,.1s-.7,0-1-.1-.6-.2-1-.3-.6-.3-.9-.5c-.3-.2-.5-.4-.8-.6-.2-.3-.5-.5-.6-.8-.2-.3-.4-.6-.5-.9s-.2-.6-.3-1c0-.3,0-.7,0-1s0-.7,0-1,.2-.6.3-1,.3-.6.5-.9.4-.5.6-.8c.3-.2.5-.5.8-.6s.6-.4.9-.5c.3-.1.6-.2,1-.3.3,0,.7-.1,1-.1s.7,0,1,.1.6.2,1,.3.6.3.9.5c.3.2.5.4.8.6.2.3.5.5.6.8.2.3.4.6.5.9s.2.6.3,1,0,.7,0,1ZM13.1,101.6c0,.4,0,.7-.1,1s-.2.6-.3,1c-.1.3-.3.6-.5.9s-.4.5-.6.8c-.3.2-.5.5-.8.6s-.6.4-.9.5c-.3.1-.6.2-1,.3-.3,0-.7.1-1,.1s-.7,0-1-.1-.6-.2-1-.3-.6-.3-.9-.5-.5-.4-.8-.6c-.2-.3-.5-.5-.6-.8-.2-.3-.4-.6-.5-.9s-.2-.6-.3-1,0-.7,0-1,0-.7,0-1,.2-.6.3-1,.3-.6.5-.9.4-.5.6-.8c.3-.2.5-.5.8-.6s.6-.4.9-.5.6-.2,1-.3c.3,0,.7-.1,1-.1s.7,0,1,.1.6.2,1,.3.6.3.9.5c.3.2.5.4.8.6.2.3.5.5.6.8.2.3.4.6.5.9s.2.6.3,1,.1.7.1,1Z" style="fill: #f22; stroke-width: 0px;"/>
</svg>