<?xml version="1.0" encoding="UTF-8"?>
<svg id="user" data-name="user" xmlns="http://www.w3.org/2000/svg" version="1.1" viewBox="0 0 128 128">
  <path d="M85,104.94h-43.48v-8.04h43.48v8.04ZM88.63,100.92c0,.26-.02.53-.07.79s-.11.51-.2.75-.2.48-.34.7c-.13.21-.28.42-.45.61-.17.18-.36.35-.55.5-.19.14-.41.26-.63.37-.21.1-.45.17-.67.22-.23.05-.48.08-.71.08s-.48-.03-.71-.08-.46-.13-.67-.22c-.22-.1-.44-.22-.63-.37-.19-.15-.38-.31-.55-.5-.16-.18-.31-.4-.45-.61-.13-.22-.24-.46-.34-.7-.09-.24-.16-.49-.2-.75-.05-.26-.07-.53-.07-.79s.02-.53.07-.78c.05-.26.11-.52.2-.75.09-.24.2-.48.34-.7.13-.21.28-.42.45-.6s.36-.36.55-.51c.19-.14.41-.26.63-.37.21-.1.45-.17.67-.22.23-.05.48-.08.71-.08s.48.03.71.08.46.13.67.22c.22.1.44.22.63.37.19.15.38.31.55.51.16.18.31.39.45.6.13.22.24.46.34.7.09.24.16.5.2.75.05.25.07.52.07.78ZM45.15,100.92c0,.26-.02.53-.07.79s-.11.51-.2.75-.2.48-.34.7c-.13.21-.28.42-.45.61-.17.18-.36.35-.55.5-.19.14-.41.26-.63.37-.21.1-.45.17-.67.22-.23.05-.48.08-.71.08s-.48-.03-.71-.08-.46-.13-.67-.22c-.22-.1-.44-.22-.63-.37-.19-.15-.38-.31-.55-.5-.16-.18-.31-.4-.45-.61-.13-.22-.24-.46-.34-.7-.09-.24-.16-.49-.2-.75-.05-.26-.07-.53-.07-.79s.02-.53.07-.78c.05-.26.11-.52.2-.75.09-.24.2-.48.34-.7.13-.21.28-.42.45-.6.17-.18.36-.36.55-.51.19-.14.41-.26.63-.37.21-.1.45-.17.67-.22.23-.05.48-.08.71-.08s.48.03.71.08.46.13.67.22c.22.1.44.22.63.37.19.15.38.31.55.51.16.18.31.39.45.6.13.22.24.46.34.7.09.24.16.5.2.75.05.25.07.52.07.78Z" style="fill: #f22; stroke-width: 0px;"/>
  <path d="M94.45,31.71c0,17.66-14.31,31.96-31.96,31.96s-31.96-14.31-31.96-31.96S44.84-.26,62.49-.26s31.96,14.31,31.96,31.96h0ZM87.72,31.71c0-6.96-2.46-12.9-7.39-17.83s-10.87-7.39-17.84-7.39-12.9,2.46-17.83,7.39-7.39,10.87-7.39,17.83,2.46,12.91,7.39,17.84,10.87,7.39,17.83,7.39,12.91-2.46,17.84-7.39c4.93-4.93,7.39-10.87,7.39-17.84Z" style="fill: #000; stroke-width: 0px;"/>
  <path d="M118.54,110.39c-7.34-24.36-25.46-36.54-54.33-36.54s-46.98,12.18-54.33,36.54c-.8,2.66-.29,5.08,1.53,7.25,1.89,2.25,4.36,3.37,7.43,3.37h90.73c3.07,0,5.55-1.13,7.43-3.37,1.82-2.17,2.33-4.58,1.53-7.25h.01ZM124.98,108.45c1.5,4.99.57,9.49-2.81,13.52-3.23,3.85-7.43,5.77-12.59,5.77H18.85c-5.16,0-9.37-1.92-12.59-5.77-3.38-4.03-4.32-8.53-2.81-13.52,8.31-27.56,28.57-41.34,60.77-41.34s52.47,13.78,60.77,41.34h-.01Z" style="fill: #000; stroke-width: 0px;"/>
</svg>