<?xml version="1.0" encoding="utf-8"?>
<!-- Generator: Adobe Illustrator 16.0.0, SVG Export Plug-In . SVG Version: 6.00 Build 0)  -->
<!DOCTYPE svg PUBLIC "-//W3C//DTD SVG 1.1//EN" "http://www.w3.org/Graphics/SVG/1.1/DTD/svg11.dtd">
<svg version="1.1" id="user-add" xmlns="http://www.w3.org/2000/svg" xmlns:xlink="http://www.w3.org/1999/xlink" x="0px" y="0px"
	 width="612px" height="792px" viewBox="0 0 612 792" style="enable-background:new 0 0 612 792;" xml:space="preserve">
<path d="M479.931,240.509c0,91.201-73.26,164.462-163.964,164.462c-90.703,0-163.964-73.261-163.964-164.462
	c0-91.202,73.261-164.463,163.964-164.463C406.671,76.046,479.931,149.306,479.931,240.509z M445.544,240.509
	c0-35.883-12.46-66.284-37.877-92.199s-55.817-37.876-91.7-37.876s-66.283,12.459-91.7,37.876s-37.876,55.817-37.876,92.199
	c0,36.381,12.459,66.283,37.876,92.198c25.417,25.417,55.817,37.876,91.7,37.876s66.283-12.459,91.7-37.876
	S445.544,276.889,445.544,240.509L445.544,240.509z"/>
<path d="M203.834,455.804c0-0.996-0.997-1.993-1.495-2.99c-0.499-0.996-1.495-1.993-1.994-2.491c0-0.997-1.495-1.495-2.491-1.994
	c-0.997-0.498-1.994-0.996-2.99-1.495c-0.997,0-1.994-0.996-2.99-0.996h-6.978c-0.997,0-1.993,0.498-2.99,0.996
	c-0.997,0-1.993,0.997-2.99,1.495c-0.997,0.499-1.993,1.495-2.492,1.994c-0.996,0.996-1.495,1.495-1.993,2.491l-1.495,2.99
	c0,0.997-0.997,1.994-0.997,2.99v6.978c0,0.997,0,1.993,0.997,2.99c0,0.997,0.997,1.993,1.495,2.99s1.495,1.993,1.993,2.492
	c0.997,0.996,1.495,1.495,2.492,1.993s1.993,0.997,2.99,1.495c0.997,0,1.993,0.997,2.99,0.997h6.978c0.996,0,1.993-0.499,2.99-0.997
	c0.996,0,1.993-0.997,2.99-1.495c0.996-0.498,1.495-1.495,2.491-1.993c0.997-0.499,1.495-1.495,1.994-2.492l1.495-2.99
	c0-0.997,0.996-1.993,0.996-2.99v-6.978C204.83,457.799,204.83,456.802,203.834,455.804z"/>
<path d="M603.528,615.284c-17.941-52.329-44.854-94.192-80.736-125.092c-76.749-65.286-169.944-65.286-209.316-65.286
	c-56.315,0-102.165,11.462-131.569,21.43c0.997,4.485,2.492,8.971,3.987,13.954c2.491,6.978,4.983,12.958,7.476,18.44
	c34.388-12.958,74.257-19.437,120.106-19.437c134.063,0,219.782,55.319,257.16,166.954c4.485,13.456,2.492,25.915-6.978,36.88
	c-9.469,11.462-22.427,17.442-38.374,17.442H201.84c-0.996,0-1.993,0.499-3.488,0.997c-0.997,0-1.993,0.997-2.99,1.495
	s-1.993,1.495-2.492,1.993c-0.996,0.997-1.495,1.495-1.993,2.492l-1.495,2.99c0,0.997-0.997,1.993-0.997,2.99v3.488l0,0v3.488
	c0,0.997,0,1.994,0.997,2.99c0,0.997,0.997,1.994,1.495,2.99c0.498,0.997,1.495,1.495,1.993,2.492
	c0.997,0.997,1.495,1.495,2.492,1.993c0.997,0.499,1.993,0.997,2.99,1.495c0.997,0,1.993,0.997,3.488,0.997h323.443
	c26.912,0,48.342-9.968,65.286-29.902c17.443-20.932,21.929-44.354,12.958-70.271V615.284z"/>
<path style="fill:#FF2222;" d="M118.376,699.48C56.685,699.48,7.5,649.291,7.5,587.605S56.685,475.73,118.376,475.73
	c61.689,0,112.875,50.195,112.875,111.875S180.065,699.48,118.376,699.48z M119.376,504.583c-45.779,0-83.025,37.242-83.025,83.022
	c0,45.779,37.247,83.018,83.025,83.018c45.777,0,83.021-37.241,83.021-83.024C202.397,541.816,165.155,504.583,119.376,504.583z"/>
<path style="fill:#FF2222;" d="M163.821,584.443l-37.059-33.565c-1.75-1.584-4.454-1.448-6.037,0.304
	c-0.711,0.784-1.104,1.805-1.105,2.863v19.697H77.803c-2.361,0.002-4.274,1.915-4.275,4.275v19.184
	c0.001,2.359,1.914,4.271,4.275,4.271h41.816v19.703c0.002,2.361,1.918,4.273,4.279,4.271c1.059,0,2.078-0.395,2.863-1.104
	l37.059-33.568c1.748-1.584,1.881-4.286,0.297-6.035C164.024,584.636,163.925,584.537,163.821,584.443z"/>
</svg>
