<?xml version="1.0" encoding="UTF-8"?>
<svg id="_图层_1" data-name="图层 1" xmlns="http://www.w3.org/2000/svg" version="1.1" viewBox="0 0 256 256">
  <path d="M252.2,115.7c-37.4-55.4-78.8-83.2-124.2-83.2S42.7,59.2,5.9,112.6l-2.1,3-.8,1.3c-4.2,7.3-3.9,16.3.8,23.3,37.4,55.4,78.8,83.2,124.2,83.2s85.3-26.7,122.1-80.1l2.1-3,.8-1.3c4.2-7.3,3.9-16.3-.8-23.3ZM231.9,131c-33,47.9-67.5,70.5-103.9,70.5s-70.9-22.6-103.9-70.5l-2-3,2-3C57.1,77.2,91.6,54.6,128,54.6s70.9,22.6,103.9,70.5l2,3-2,3Z" style="fill: #000; stroke-width: 0px;"/>
  <path d="M128,81.2c-26.4.3-47.8,21.7-48.1,48.1-.3,26.9,21.2,49,48.1,49.3.4,0,.8,0,1.2,0,26.9-.3,48.4-22.4,48.1-49.3-.3-26.9-22.4-48.4-49.3-48.1ZM128,156.6c-.3,0-.6,0-.9,0-14.7-.2-26.5-12.4-26.2-27.1.2-14.7,12.4-26.5,27.1-26.2,14.4.2,26,11.8,26.2,26.2.2,14.7-11.5,26.9-26.2,27.1Z" style="fill: #f22; stroke-width: 0px;"/>
</svg>